<mxfile host="Electron" agent="Mozilla/5.0 (X11; Linux x86_64) AppleWebKit/537.36 (KHTML, like Gecko) draw.io/26.0.4 Chrome/128.0.6613.186 Electron/32.2.5 Safari/537.36" version="26.0.4">
  <diagram name="Page-1" id="IkeMCgo0eh4d-U4OSxJ_">
    <mxGraphModel dx="1114" dy="1198" grid="1" gridSize="10" guides="1" tooltips="1" connect="1" arrows="1" fold="1" page="1" pageScale="1" pageWidth="850" pageHeight="1100" math="0" shadow="0">
      <root>
        <mxCell id="0" />
        <mxCell id="1" parent="0" />
        <mxCell id="H-xdwBpx4UCc5MNSoax5-28" value="&lt;b&gt;Hibernation&lt;/b&gt;" style="rounded=0;whiteSpace=wrap;html=1;fillColor=none;dashed=1;verticalAlign=bottom;labelPosition=center;verticalLabelPosition=top;align=center;strokeColor=#0000FF;fontColor=#0000FF;fontSize=20;strokeWidth=2;" vertex="1" parent="1">
          <mxGeometry x="320" y="330" width="370" height="245.5" as="geometry" />
        </mxCell>
        <mxCell id="H-xdwBpx4UCc5MNSoax5-29" value="&amp;nbsp;Hibernate&amp;nbsp;" style="edgeStyle=orthogonalEdgeStyle;rounded=0;orthogonalLoop=1;jettySize=auto;html=1;" edge="1" parent="1" source="H-xdwBpx4UCc5MNSoax5-1" target="H-xdwBpx4UCc5MNSoax5-5">
          <mxGeometry relative="1" as="geometry" />
        </mxCell>
        <mxCell id="H-xdwBpx4UCc5MNSoax5-1" value="EC2 Instance" style="sketch=0;outlineConnect=0;fontColor=#232F3E;gradientColor=none;fillColor=#ED7100;strokeColor=none;dashed=0;verticalLabelPosition=middle;verticalAlign=middle;align=right;html=1;fontSize=16;fontStyle=0;aspect=fixed;pointerEvents=1;shape=mxgraph.aws4.instance2;labelPosition=left;spacingBottom=0;spacing=0;spacingRight=5;" vertex="1" parent="1">
          <mxGeometry x="110" y="405.5" width="82" height="82" as="geometry" />
        </mxCell>
        <mxCell id="H-xdwBpx4UCc5MNSoax5-3" value="Running" style="text;html=1;align=center;verticalAlign=middle;resizable=0;points=[];autosize=1;strokeColor=none;fillColor=none;fontColor=#0066CC;fontStyle=1;fontSize=16;" vertex="1" parent="1">
          <mxGeometry x="130" y="350" width="80" height="30" as="geometry" />
        </mxCell>
        <mxCell id="H-xdwBpx4UCc5MNSoax5-4" value="RAM" style="whiteSpace=wrap;html=1;fillColor=#1ba1e2;strokeColor=#006EAF;fontStyle=1;fontColor=#ffffff;" vertex="1" parent="1">
          <mxGeometry x="123" y="444.5" width="56" height="30" as="geometry" />
        </mxCell>
        <mxCell id="H-xdwBpx4UCc5MNSoax5-2" value="Root EBS Volume&lt;div&gt;(Encrypted)&lt;/div&gt;" style="sketch=0;outlineConnect=0;fontColor=#232F3E;gradientColor=none;fillColor=#7AA116;strokeColor=none;dashed=0;verticalLabelPosition=bottom;verticalAlign=top;align=center;html=1;fontSize=12;fontStyle=0;aspect=fixed;pointerEvents=1;shape=mxgraph.aws4.volume;labelPosition=center;spacingLeft=0;spacing=0;" vertex="1" parent="1">
          <mxGeometry x="170" y="450" width="62" height="78" as="geometry" />
        </mxCell>
        <mxCell id="H-xdwBpx4UCc5MNSoax5-9" value="Stopping" style="text;html=1;align=center;verticalAlign=middle;resizable=0;points=[];autosize=1;strokeColor=none;fillColor=none;fontColor=#0066CC;fontStyle=1;fontSize=16;" vertex="1" parent="1">
          <mxGeometry x="356" y="350" width="90" height="30" as="geometry" />
        </mxCell>
        <mxCell id="H-xdwBpx4UCc5MNSoax5-16" value="Stopped" style="text;html=1;align=center;verticalAlign=middle;resizable=0;points=[];autosize=1;strokeColor=none;fillColor=none;fontColor=#0066CC;fontStyle=1;fontSize=16;" vertex="1" parent="1">
          <mxGeometry x="581" y="350" width="80" height="30" as="geometry" />
        </mxCell>
        <mxCell id="H-xdwBpx4UCc5MNSoax5-22" value="Running" style="text;html=1;align=center;verticalAlign=middle;resizable=0;points=[];autosize=1;strokeColor=none;fillColor=none;fontColor=#0066CC;fontStyle=1;fontSize=16;" vertex="1" parent="1">
          <mxGeometry x="790" y="350" width="80" height="30" as="geometry" />
        </mxCell>
        <mxCell id="H-xdwBpx4UCc5MNSoax5-31" value="&amp;nbsp;Start&amp;nbsp;" style="edgeStyle=orthogonalEdgeStyle;rounded=0;orthogonalLoop=1;jettySize=auto;html=1;" edge="1" parent="1" source="H-xdwBpx4UCc5MNSoax5-18" target="H-xdwBpx4UCc5MNSoax5-24">
          <mxGeometry relative="1" as="geometry" />
        </mxCell>
        <mxCell id="H-xdwBpx4UCc5MNSoax5-18" value="" style="sketch=0;outlineConnect=0;fontColor=#232F3E;gradientColor=none;fillColor=#ED7100;strokeColor=none;dashed=0;verticalLabelPosition=top;verticalAlign=bottom;align=center;html=1;fontSize=16;fontStyle=0;aspect=fixed;pointerEvents=1;shape=mxgraph.aws4.instance2;labelPosition=center;spacingBottom=0;" vertex="1" parent="1">
          <mxGeometry x="560" y="405.5" width="82" height="82" as="geometry" />
        </mxCell>
        <mxCell id="H-xdwBpx4UCc5MNSoax5-20" value="" style="sketch=0;outlineConnect=0;fontColor=#232F3E;gradientColor=none;fillColor=#7AA116;strokeColor=none;dashed=0;verticalLabelPosition=middle;verticalAlign=middle;align=left;html=1;fontSize=12;fontStyle=0;aspect=fixed;pointerEvents=1;shape=mxgraph.aws4.volume;labelPosition=right;spacingLeft=0;spacing=0;" vertex="1" parent="1">
          <mxGeometry x="620" y="450" width="62" height="78" as="geometry" />
        </mxCell>
        <mxCell id="H-xdwBpx4UCc5MNSoax5-21" value="RAM" style="whiteSpace=wrap;html=1;fillColor=#1ba1e2;strokeColor=#006EAF;fontStyle=1;fontColor=#ffffff;" vertex="1" parent="1">
          <mxGeometry x="623" y="494" width="56" height="30" as="geometry" />
        </mxCell>
        <mxCell id="H-xdwBpx4UCc5MNSoax5-24" value="" style="sketch=0;outlineConnect=0;fontColor=#232F3E;gradientColor=none;fillColor=#ED7100;strokeColor=none;dashed=0;verticalLabelPosition=top;verticalAlign=bottom;align=center;html=1;fontSize=16;fontStyle=0;aspect=fixed;pointerEvents=1;shape=mxgraph.aws4.instance2;labelPosition=center;spacingBottom=0;" vertex="1" parent="1">
          <mxGeometry x="780" y="405.5" width="82" height="82" as="geometry" />
        </mxCell>
        <mxCell id="H-xdwBpx4UCc5MNSoax5-25" value="RAM" style="whiteSpace=wrap;html=1;fillColor=#1ba1e2;strokeColor=#006EAF;fontStyle=1;fontColor=#ffffff;" vertex="1" parent="1">
          <mxGeometry x="793" y="444.5" width="56" height="30" as="geometry" />
        </mxCell>
        <mxCell id="H-xdwBpx4UCc5MNSoax5-26" value="" style="sketch=0;outlineConnect=0;fontColor=#232F3E;gradientColor=none;fillColor=#7AA116;strokeColor=none;dashed=0;verticalLabelPosition=middle;verticalAlign=middle;align=left;html=1;fontSize=12;fontStyle=0;aspect=fixed;pointerEvents=1;shape=mxgraph.aws4.volume;labelPosition=right;spacingLeft=0;spacing=0;" vertex="1" parent="1">
          <mxGeometry x="840" y="450" width="62" height="78" as="geometry" />
        </mxCell>
        <mxCell id="H-xdwBpx4UCc5MNSoax5-30" value="&amp;nbsp;Shutdown&amp;nbsp;" style="edgeStyle=orthogonalEdgeStyle;rounded=0;orthogonalLoop=1;jettySize=auto;html=1;" edge="1" parent="1" source="H-xdwBpx4UCc5MNSoax5-5" target="H-xdwBpx4UCc5MNSoax5-18">
          <mxGeometry relative="1" as="geometry" />
        </mxCell>
        <mxCell id="H-xdwBpx4UCc5MNSoax5-5" value="" style="sketch=0;outlineConnect=0;fontColor=#232F3E;gradientColor=none;fillColor=#ED7100;strokeColor=none;dashed=0;verticalLabelPosition=top;verticalAlign=bottom;align=center;html=1;fontSize=16;fontStyle=0;aspect=fixed;pointerEvents=1;shape=mxgraph.aws4.instance2;labelPosition=center;spacingBottom=0;" vertex="1" parent="1">
          <mxGeometry x="340" y="405.5" width="82" height="82" as="geometry" />
        </mxCell>
        <mxCell id="H-xdwBpx4UCc5MNSoax5-6" value="RAM" style="whiteSpace=wrap;html=1;fillColor=#1ba1e2;strokeColor=#006EAF;fontStyle=1;fontColor=#ffffff;" vertex="1" parent="1">
          <mxGeometry x="353" y="444.5" width="56" height="30" as="geometry" />
        </mxCell>
        <mxCell id="H-xdwBpx4UCc5MNSoax5-7" value="" style="sketch=0;outlineConnect=0;fontColor=#232F3E;gradientColor=none;fillColor=#7AA116;strokeColor=none;dashed=0;verticalLabelPosition=middle;verticalAlign=middle;align=left;html=1;fontSize=12;fontStyle=0;aspect=fixed;pointerEvents=1;shape=mxgraph.aws4.volume;labelPosition=right;spacingLeft=0;spacing=0;" vertex="1" parent="1">
          <mxGeometry x="400" y="450" width="62" height="78" as="geometry" />
        </mxCell>
        <mxCell id="H-xdwBpx4UCc5MNSoax5-10" value="RAM" style="whiteSpace=wrap;html=1;fillColor=#1ba1e2;strokeColor=#006EAF;fontStyle=1;fontColor=#ffffff;" vertex="1" parent="1">
          <mxGeometry x="403" y="494" width="56" height="30" as="geometry" />
        </mxCell>
      </root>
    </mxGraphModel>
  </diagram>
</mxfile>
